<?xml version="1.0" standalone="no"?>
<!DOCTYPE svg PUBLIC "-//W3C//DTD SVG 20010904//EN"
 "http://www.w3.org/TR/2001/REC-SVG-20010904/DTD/svg10.dtd">
<svg version="1.0" xmlns="http://www.w3.org/2000/svg"
 width="2078.000000pt" height="2078.000000pt" viewBox="0 0 2078.000000 2078.000000"
 preserveAspectRatio="xMidYMid meet">
<metadata>
Created by potrace 1.11, written by Peter Selinger 2001-2013
</metadata>
<g transform="translate(0.000000,2078.000000) scale(0.100000,-0.100000)"
fill="#000000" stroke="none">
<path d="M9968 20775 c-1 -2 -66 -6 -143 -9 -77 -4 -158 -8 -180 -11 -22 -2
-76 -7 -120 -10 -44 -3 -98 -8 -120 -10 -22 -2 -67 -7 -100 -10 -33 -3 -73 -8
-90 -10 -16 -3 -55 -7 -85 -10 -30 -3 -64 -7 -75 -9 -11 -2 -45 -7 -75 -10
-30 -4 -66 -8 -80 -11 -46 -7 -105 -16 -134 -20 -58 -8 -272 -45 -316 -55 -25
-5 -56 -12 -70 -14 -52 -10 -128 -25 -220 -46 -52 -12 -106 -24 -120 -26 -14
-3 -70 -16 -125 -30 -55 -14 -107 -27 -115 -29 -8 -2 -51 -13 -95 -25 -44 -12
-87 -23 -96 -25 -88 -18 -596 -182 -820 -265 -157 -59 -450 -176 -524 -210
-22 -10 -103 -46 -180 -81 -558 -250 -1244 -646 -1743 -1008 -243 -176 -704
-544 -842 -673 -14 -12 -73 -66 -130 -118 -102 -92 -525 -511 -605 -600 -23
-25 -65 -72 -95 -105 -55 -60 -98 -109 -227 -260 -73 -86 -270 -332 -343 -430
-25 -33 -49 -64 -53 -70 -4 -5 -32 -44 -62 -85 -29 -41 -62 -86 -73 -100 -125
-165 -458 -692 -599 -950 -17 -30 -53 -95 -80 -145 -269 -489 -556 -1165 -743
-1750 -75 -234 -182 -620 -205 -735 -2 -8 -17 -73 -33 -145 -27 -115 -51 -234
-66 -318 -3 -15 -7 -35 -10 -45 -3 -9 -7 -33 -10 -52 -3 -19 -12 -73 -20 -120
-8 -47 -17 -103 -21 -125 -3 -23 -7 -52 -10 -65 -5 -26 -22 -150 -30 -220 -3
-25 -7 -56 -10 -70 -2 -14 -7 -54 -10 -90 -3 -36 -8 -76 -10 -90 -2 -14 -6
-54 -9 -90 -3 -36 -8 -94 -11 -130 -26 -315 -30 -432 -30 -880 0 -396 3 -506
20 -735 3 -33 7 -91 10 -130 4 -64 10 -120 20 -215 2 -19 7 -66 11 -105 3 -38
8 -81 10 -95 2 -14 9 -61 15 -105 5 -44 12 -91 14 -105 2 -14 7 -43 10 -65 4
-22 8 -51 10 -65 3 -14 7 -43 10 -65 3 -22 8 -51 11 -65 2 -14 6 -36 9 -50 6
-33 26 -138 31 -170 4 -23 45 -221 58 -280 3 -14 10 -45 15 -70 9 -40 73 -294
116 -455 53 -201 182 -600 261 -808 20 -51 37 -96 38 -102 2 -5 7 -21 13 -35
6 -14 19 -50 31 -80 24 -64 119 -292 153 -365 12 -27 23 -52 24 -55 17 -53
242 -514 326 -669 16 -29 41 -77 56 -105 15 -28 32 -58 39 -66 6 -8 27 -45 46
-81 187 -351 644 -1020 951 -1392 20 -23 63 -76 97 -117 34 -41 72 -87 85
-101 152 -173 206 -233 314 -348 231 -246 441 -451 715 -696 173 -155 579
-482 722 -581 23 -16 93 -65 155 -110 271 -193 658 -438 929 -587 36 -19 90
-49 120 -66 30 -17 165 -86 300 -154 453 -227 874 -401 1355 -562 144 -48 503
-157 558 -170 12 -2 83 -20 157 -40 119 -31 399 -96 470 -109 14 -2 84 -16
155 -30 144 -28 230 -43 290 -51 22 -2 49 -6 60 -9 11 -2 42 -7 68 -10 27 -4
56 -9 65 -10 10 -2 43 -7 76 -11 32 -3 68 -8 80 -10 11 -2 48 -6 81 -10 33 -3
74 -8 90 -10 38 -5 129 -14 330 -30 198 -16 342 -20 805 -20 454 0 704 6 813
20 16 2 67 6 115 10 48 3 98 8 112 9 14 2 57 7 95 10 39 4 81 9 95 11 14 2 48
7 75 10 55 7 90 11 150 20 22 3 58 8 80 10 22 3 51 7 65 10 14 3 41 7 60 10
19 3 46 7 60 10 14 3 41 7 60 10 50 8 201 35 225 41 11 3 34 7 50 10 50 9 253
54 385 85 69 17 132 32 140 34 45 11 186 49 260 71 47 14 94 27 105 29 11 3
31 9 45 14 26 10 228 73 245 77 40 9 374 129 595 214 74 29 280 116 350 148
36 16 99 44 140 62 114 49 526 257 695 350 443 244 914 553 1320 865 134 103
418 335 486 396 14 13 43 39 65 58 215 189 590 558 779 766 60 66 112 122 115
125 3 3 30 34 60 70 30 36 60 70 65 76 28 30 140 166 272 330 40 50 173 225
193 255 8 12 31 43 50 68 49 63 262 374 307 447 7 10 56 89 109 174 138 221
120 191 229 385 255 454 488 950 648 1380 14 39 32 84 38 100 7 17 13 35 15
40 2 6 21 62 44 125 23 63 68 201 101 305 33 105 66 210 74 235 12 37 45 162
90 335 19 73 66 267 71 295 3 14 9 41 14 60 5 19 12 53 16 75 3 22 12 67 19
100 12 51 26 128 60 325 21 121 50 323 60 419 3 25 7 55 9 66 2 11 7 52 11 90
3 39 8 84 10 100 2 17 7 64 10 105 3 41 8 95 10 120 16 181 20 363 20 840 0
476 -4 631 -19 780 -2 19 -7 74 -11 122 -3 48 -8 98 -10 110 -2 13 -6 55 -10
93 -3 39 -8 84 -10 100 -3 17 -7 53 -10 80 -3 28 -15 113 -26 190 -53 364 -98
596 -205 1038 -2 9 -6 25 -8 35 -2 9 -9 37 -16 62 -7 25 -14 52 -15 60 -9 42
-92 322 -132 450 -127 399 -277 787 -470 1215 -90 199 -388 768 -463 885 -5 8
-17 28 -26 45 -9 16 -65 105 -123 198 -58 93 -111 176 -116 186 -35 56 -260
383 -307 446 -195 258 -298 390 -390 500 -239 288 -402 466 -674 739 -118 118
-183 181 -339 325 -44 41 -222 197 -295 259 -88 74 -231 191 -260 212 -18 14
-38 30 -44 36 -17 16 -282 214 -361 269 -38 27 -72 52 -75 55 -10 10 -339 230
-345 230 -3 0 -11 5 -18 10 -40 34 -411 257 -579 349 -32 17 -84 45 -115 63
-122 67 -513 259 -648 318 -22 9 -62 27 -90 40 -93 41 -114 50 -277 116 -374
151 -748 278 -1133 384 -82 23 -157 43 -165 45 -8 2 -80 19 -160 38 -253 62
-594 130 -785 157 -38 6 -77 12 -85 15 -8 2 -44 7 -80 10 -35 4 -67 8 -70 10
-3 1 -34 6 -70 10 -36 4 -74 9 -85 10 -24 4 -112 14 -175 20 -25 2 -67 7 -95
10 -49 5 -77 7 -260 21 -49 3 -112 8 -140 10 -63 5 -1012 14 -1017 9z"/>
</g>
</svg>
